<?xml version="1.0" encoding="UTF-8" standalone="no"?>
<!-- Created with Inkscape (http://www.inkscape.org/) -->

<svg
   width="100.44231mm"
   height="205.61105mm"
   viewBox="0 0 100.44231 205.61105"
   version="1.1"
   id="svg5"
   inkscape:version="1.1.2 (0a00cf5339, 2022-02-04)"
   sodipodi:docname="girl_walking.svg"
   xmlns:inkscape="http://www.inkscape.org/namespaces/inkscape"
   xmlns:sodipodi="http://sodipodi.sourceforge.net/DTD/sodipodi-0.dtd"
   xmlns="http://www.w3.org/2000/svg"
   xmlns:svg="http://www.w3.org/2000/svg">
  <sodipodi:namedview
     id="namedview7"
     pagecolor="#ffffff"
     bordercolor="#666666"
     borderopacity="1.0"
     inkscape:pageshadow="2"
     inkscape:pageopacity="0.0"
     inkscape:pagecheckerboard="0"
     inkscape:document-units="mm"
     showgrid="false"
     inkscape:zoom="0.36257716"
     inkscape:cx="1203.8817"
     inkscape:cy="759.83826"
     inkscape:window-width="1920"
     inkscape:window-height="999"
     inkscape:window-x="0"
     inkscape:window-y="0"
     inkscape:window-maximized="1"
     inkscape:current-layer="layer2"
     fit-margin-top="0"
     fit-margin-left="0"
     fit-margin-right="0"
     fit-margin-bottom="0" />
  <defs
     id="defs2">
    <inkscape:path-effect
       effect="fill_between_many"
       method="originald"
       linkedpaths="#path100,0,1"
       id="path-effect11961"
       is_visible="true"
       lpeversion="0"
       join="true"
       close="true"
       autoreverse="true"
       applied="false" />
  </defs>
  <g
     inkscape:groupmode="layer"
     id="layer2"
     inkscape:label="silhouette"
     style="display:inline;opacity:1"
     transform="translate(103.6271,-7.3816568)">
    <path
       inkscape:original-d="M 427.26052,-881.49568"
       inkscape:path-effect="#path-effect11961"
       d="m -79.215209,210.41458 c -1.717758,-0.018 -3.474708,-0.1494 -5.108385,-0.68067 -1.793715,-0.58314 -3.656568,-1.34604 -4.975986,-2.69385 -0.853749,-0.87213 -1.674138,-3.25617 -1.674138,-3.25617 0,0 -2.800746,-0.1143 -4.159236,-0.42543 -1.642848,-0.37617 -3.385307,-0.73998 -4.752593,-1.72536 -1.007783,-0.7263 -1.806383,-1.78728 -2.314483,-2.92086 -0.34989,-0.78063 -0.44091,-2.52819 -0.44091,-2.52819 l -0.89369,-0.85695 c 0,0 2.63385,-5.06271 4.138716,-7.4838 1.536648,-2.47221 3.210731,-4.86207 4.98179,-7.17216 2.195361,-2.86353 5.057874,-5.21952 6.982323,-8.27172 1.544544,-2.44965 2.216133,-5.36079 3.574557,-7.91835 1.654299,-3.11463 3.626412,-6.05169 5.55222,-9.00615 1.025346,-1.57302 2.63652,-2.847 3.193986,-4.64004 0.423066,-1.36074 -0.327795,-2.88822 0,-4.275 0.673623,-2.84985 2.232648,-5.47149 3.933348,-7.85541 1.358406,-1.9041 4.910463,-5.01252 4.910463,-5.01252 l -1.967253,-7.58589 c -0.576123,-2.22159 -1.302687,-4.40151 -1.928433,-6.60963 -0.2397,-0.84579 -0.699405,-2.54289 -0.699405,-2.54289 0,0 -1.277769,1.44153 -2.148132,1.75137 -0.649023,0.231 -1.43295,0.27 -2.06676,0 -1.079229,-0.45972 -2.438184,-2.53773 -2.438184,-2.53773 0,0 -1.15017,0.79788 -1.818084,0.92637 -0.794385,0.1527 -2.416794,-0.2208 -2.416794,-0.2208 0,0 -0.895815,-3.1191 -1.38396,-4.66632 -0.655821,-2.0787 -1.284888,-4.1697 -2.074998,-6.20115 -0.346965,-0.89208 -0.871134,-1.71327 -1.168185,-2.6232 -0.367596,-1.12602 -0.15261,-2.44998 -0.748179,-3.473846 -0.385419,-0.66258 -1.28271,-0.89907 -1.714764,-1.53225 -1.417218,-2.07693 -1.883046,-4.66902 -2.629218,-7.07013 -0.686796,-2.21007 -1.627602,-4.41963 -1.694601,-6.73296 -0.03153,-1.08846 0.510093,-2.12472 0.612657,-3.2088 0.08742,-0.92409 0.03027,-1.856922 0,-2.784642 -0.0135,-0.410076 -0.08028,-1.228266 -0.08028,-1.228266 0,0 -0.793869,1.138845 -1.232457,1.67598 -0.46146,0.565146 -1.468485,1.623138 -1.468485,1.623138 0,0 -0.0258,-2.420076 0,-3.629706 0.04107,-1.931874 0.10929,-3.864252 0.24636,-5.791692 0.09612,-1.351272 0.403686,-4.043958 0.403686,-4.043958 0,0 -1.896237,-2.809398 -2.351831,-4.412685 -0.484443,-1.704798 -0.496953,-3.540615 -0.340344,-5.305974 0.10884,-1.226805 0.23502,-2.540028 0.881924,-3.588069 0.448605,-0.726762 1.058661,-0.933327 1.950111,-1.661904 0.89145,-0.728577 2.050545,-2.210073 3.420672,-2.680218 1.074972,-0.368865 3.409473,0.012 3.409473,0.012 0,0 2.840208,-0.76221 4.278495,-1.063965 1.216434,-0.25521 2.534874,-0.1356 3.675081,-0.630357 1.432929,-0.621756 2.537598,-1.827087 3.73356,-2.831847 0.903969,-0.759447 2.02218,-1.378245 2.595072,-2.410578 0.421665,-0.759825 0.494988,-2.559528 0.494988,-2.559528 l -2.308098,1.440738 c 0,0 1.425804,-1.671924 1.966446,-2.620932 0.604488,-1.061079 1.187046,-2.18313 1.399578,-3.385677 0.496851,-2.811291 -0.476304,-5.704455 -0.360759,-8.556975 0.11076,-2.734656 0.0981,-5.567418 1.008213,-8.148564 0.597174,-1.693632 1.411581,-3.488589 2.838324,-4.579191 1.286679,-0.983535 4.656582,-1.386453 4.656582,-1.386453 0,0 -0.07929,-0.672108 0.14826,-0.845667 0.719559,-0.548826 2.702916,0.25497 2.702916,0.25497 0,0 1.403808,-2.058867 2.403015,-2.7574648 1.363314,-0.953163 3.000534,-1.66233 4.659288,-1.787562 3.732171,-0.28176 6.853401,-0.28953 9.745125,-0.0588 2.891724,0.23073 5.63163,0.338217 7.555806,1.260252 1.332774,0.638637 2.34966,1.8530638 3.220857,3.0468628 0.863019,1.182594 1.604958,2.525469 1.901292,3.959178 0.25617,2.208117 -0.5568,4.19259 -0.660015,5.66619 -0.1032,1.4736 -0.07548,3.157863 -0.07548,3.157863 0,0 2.097702,1.699089 2.538915,2.588532 0.377436,0.760875 0.849294,1.762782 0.443817,2.509092 -0.20178,0.371382 -1.167702,0.494166 -1.167702,0.494166 0,0 0.34707,1.464579 0.23637,2.190639 -0.04131,0.27087 -0.13476,0.559332 -0.327732,0.75387 -0.431745,0.435258 -1.680711,0.746916 -1.680711,0.746916 0,0 1.235271,-0.03417 1.533669,0.347484 0.22791,0.29151 0.19632,0.7344 0.14397,1.100709 -0.05541,0.387711 -0.19008,0.80445 -0.47256,1.075722 -0.15909,0.15276 -0.616077,0.24138 -0.616077,0.24138 0,0 0.412866,1.696083 0.18246,2.498835 -0.11109,0.387012 -0.393972,0.729666 -0.713487,0.97467 -0.665136,0.51003 -1.512855,0.806505 -2.344863,0.907986 -1.086561,0.13254 -3.25752,-0.414948 -3.25752,-0.414948 0,0 0.25575,2.606016 0.707802,3.819336 0.902094,2.421327 2.90676,4.310736 3.918897,6.688167 1.374963,3.229683 2.235663,6.680616 2.859054,10.134999 0.61656,3.416538 0.73941,6.910248 0.854457,10.380066 0.08391,2.530443 1.079391,5.365005 -0.12033,7.594545 -0.27339,0.508047 -0.662067,0.620037 -0.908754,1.141587 -1.151085,2.43366 0.05697,5.17656 0.18834,7.88001 0.06201,1.27557 0.693066,2.63361 0.24198,3.82839 -0.29976,0.79398 -1.243557,1.41765 -1.607712,1.9743 -1.130238,1.72791 0.24018,2.83287 0.11463,4.89378 -0.09972,1.636616 -0.510984,3.242876 -0.896415,4.836596 -0.19203,0.79395 -0.877965,1.3158 -0.70383,2.34729 0.22578,1.33743 1.712316,1.79895 2.213574,3.05925 0.323445,0.81324 -0.28125,1.73916 -0.24888,2.61375 0.06858,1.85235 1.066002,3.32886 0.934965,5.48166 -0.03324,0.54582 -0.288,1.61505 -0.288,1.61505 0,0 -0.981249,1.56285 -1.635879,2.2008 -0.381405,0.37167 -1.583844,0.56385 -1.583844,0.56385 -1.413558,0.39555 -1.839432,0.66162 -2.864925,-0.50961 -0.39771,-0.4542 0.562812,-0.97353 0.567648,-1.57725 0.0036,-0.44889 -0.367212,-0.85614 -0.712842,-1.14258 -0.465198,-0.38556 -1.689219,-0.65733 -1.689219,-0.65733 0,0 0.732003,1.5105 0.349995,2.11404 -0.17142,0.2709 -0.609228,0.2067 -0.924591,0.264 -0.579747,0.1053 -1.367019,-0.2946 -1.761864,0.1428 -0.77715,0.86079 -0.18819,2.34858 0.07365,3.47835 0.29925,1.29117 1.673208,3.60702 1.673208,3.60702 0,0 0.490584,3.51831 0.7782,5.27085 0.339933,2.07132 0.57816,4.1688 1.119585,6.1968 0.537837,2.01456 1.276311,3.97713 2.103978,5.89095 0.612282,1.41579 1.292823,2.81016 2.109438,4.11879 0.360492,0.57768 0.981564,0.99921 1.224018,1.63551 0.726747,1.90734 0.03525,4.11906 0.523581,6.10089 0.21759,0.88305 0.911904,1.61766 1.056345,2.51559 0.23778,1.4781 -0.352512,4.47741 -0.352512,4.47741 0,0 -0.28359,1.6635 -0.0072,2.42208 0.391779,1.07526 1.467003,1.85895 2.01318,2.86464 0.738672,1.36014 1.120392,2.71416 1.545549,4.2024 0.332736,1.16472 0.801723,2.32173 0.945693,3.50871 0.19695,1.62372 -0.554343,3.01761 -0.326067,4.63719 0.16821,1.19352 1.259073,2.09934 1.54062,3.27132 0.22263,0.92673 -0.07908,1.91988 0.08976,2.85792 0.2961,1.64481 0.560874,3.44274 1.600065,4.7517 1.31439,1.65552 3.691146,2.08215 5.394594,3.33384 0.774072,0.5688 1.65057,1.08408 2.178138,1.88682 0.365631,0.55635 0.601488,1.90446 0.601488,1.90446 0,0 1.517349,0.1266 2.236905,0.35511 0.311064,0.0987 0.693516,0.1635 0.878388,0.43257 0.21441,0.31194 0.10338,1.13082 0.10338,1.13082 0,0 2.5122662,-1.04409 3.8204702,-0.94554 0.775239,0.0585 1.489667,0.49023 2.154497,0.89322 0.65206,0.39531 1.30794,0.8499 1.7542,1.4682 0.28158,0.39015 0.5306,1.34235 0.5306,1.34235 0,0 -1.31352,1.45833 -2.78405,2.56461 -1.470525,1.10628 -4.0477652,2.5938 -6.2026172,3.76503 -1.108965,0.60276 -2.358705,1.26033 -3.582867,1.56783 -1.317228,0.33087 -2.719941,0.0906 -4.074438,-0.009 -1.305366,-0.096 -3.885747,-0.56535 -3.885747,-0.56535 0,0 -0.997959,1.21617 -1.710057,1.42356 -1.66635,0.48528 -5.591172,-0.38994 -5.591172,-0.38994 l -5.147859,0.5217 c 0,0 0.66375,-1.99251 0.22005,-3.01878 -0.21909,-0.50679 -1.089096,-0.53445 -1.278495,-1.05306 -0.304911,-0.8349 0.59898,-1.74171 0.481251,-2.62272 -0.18813,-1.40775 -1.397346,-2.49315 -1.84242,-3.84189 -0.816798,-2.47518 -0.503001,-5.26149 -1.47924,-7.67823 -0.987444,-2.44449 -3.48852,-4.12404 -4.317786,-6.62661 -0.596058,-1.7988 -0.354894,-5.67387 -0.354894,-5.67387 0,0 -1.557216,-0.67827 -1.916049,-1.37847 -0.480276,-0.93717 0.24027,-2.13393 0,-3.15924 -0.23232,-0.99132 -0.85764,-1.84923 -1.357122,-2.73648 -0.656898,-1.16682 -1.543971,-2.19915 -2.151156,-3.39264 -0.808608,-1.5894 -1.237569,-3.34773 -1.965261,-4.97574 -0.748989,-1.67568 -2.466777,-4.92291 -2.466777,-4.92291 0,0 -3.40341,5.23458 -5.133294,7.83324 -2.104245,3.16104 -4.326165,6.24396 -6.380964,9.43737 -1.073547,1.66842 -1.825602,3.56169 -3.105825,5.07732 -1.416357,1.67682 -3.35955,2.8287 -4.963539,4.32702 -1.442124,1.34712 -3.87915,2.238 -4.184991,4.18761 -0.18588,1.18491 1.568145,1.21929 1.641984,3.20169 0.08409,2.25732 -0.009,6.74631 -0.009,6.74631 0,0 2.870859,0.50835 3.828447,1.48671 0.750903,0.76719 0.914805,1.96923 1.101162,3.02643 0.12966,0.73554 0,2.24067 0,2.24067 0,0 -2.43024,0.44166 -3.652947,0.61326 -1.223151,0.1716 -2.446902,0.42837 -3.681978,0.41604 z"
       id="path11963"
       style="display:inline;stroke-width:9" />
    <path
       style="font-variation-settings:normal;display:inline;opacity:1;vector-effect:none;fill:none;fill-opacity:1;fill-rule:evenodd;stroke:#000000;stroke-width:0.15;stroke-linecap:butt;stroke-linejoin:miter;stroke-miterlimit:4;stroke-dasharray:none;stroke-dashoffset:0;stroke-opacity:1;-inkscape-stroke:none;stop-color:#000000;stop-opacity:1"
       d="m -79.215209,210.41458 c -1.717758,-0.018 -3.474708,-0.1494 -5.108385,-0.68067 -1.793715,-0.58314 -3.656568,-1.34604 -4.975986,-2.69385 -0.853749,-0.87213 -1.674138,-3.25617 -1.674138,-3.25617 0,0 -2.800746,-0.1143 -4.159236,-0.42543 -1.642848,-0.37617 -3.385307,-0.73998 -4.752593,-1.72536 -1.007783,-0.7263 -1.806383,-1.78728 -2.314483,-2.92086 -0.34989,-0.78063 -0.44091,-2.52819 -0.44091,-2.52819 l -0.89369,-0.85695 c 0,0 2.63385,-5.06271 4.138716,-7.4838 1.536648,-2.47221 3.210731,-4.86207 4.98179,-7.17216 2.195361,-2.86353 5.057874,-5.21952 6.982323,-8.27172 1.544544,-2.44965 2.216133,-5.36079 3.574557,-7.91835 1.654299,-3.11463 3.626412,-6.05169 5.55222,-9.00615 1.025346,-1.57302 2.63652,-2.847 3.193986,-4.64004 0.423066,-1.36074 -0.327795,-2.88822 0,-4.275 0.673623,-2.84985 2.232648,-5.47149 3.933348,-7.85541 1.358406,-1.9041 4.910463,-5.01252 4.910463,-5.01252 l -1.967253,-7.58589 c -0.576123,-2.22159 -1.302687,-4.40151 -1.928433,-6.60963 -0.2397,-0.84579 -0.699405,-2.54289 -0.699405,-2.54289 0,0 -1.277769,1.44153 -2.148132,1.75137 -0.649023,0.231 -1.43295,0.27 -2.06676,0 -1.079229,-0.45972 -2.438184,-2.53773 -2.438184,-2.53773 0,0 -1.15017,0.79788 -1.818084,0.92637 -0.794385,0.1527 -2.416794,-0.2208 -2.416794,-0.2208 0,0 -0.895815,-3.1191 -1.38396,-4.66632 -0.655821,-2.0787 -1.284888,-4.1697 -2.074998,-6.20115 -0.346965,-0.89208 -0.871134,-1.71327 -1.168185,-2.6232 -0.367596,-1.12602 -0.15261,-2.44998 -0.748179,-3.473846 -0.385419,-0.66258 -1.28271,-0.89907 -1.714764,-1.53225 -1.417218,-2.07693 -1.883046,-4.66902 -2.629218,-7.07013 -0.686796,-2.21007 -1.627602,-4.41963 -1.694601,-6.73296 -0.03153,-1.08846 0.510093,-2.12472 0.612657,-3.2088 0.08742,-0.92409 0.03027,-1.856922 0,-2.784642 -0.0135,-0.410076 -0.08028,-1.228266 -0.08028,-1.228266 0,0 -0.793869,1.138845 -1.232457,1.67598 -0.46146,0.565146 -1.468485,1.623138 -1.468485,1.623138 0,0 -0.0258,-2.420076 0,-3.629706 0.04107,-1.931874 0.10929,-3.864252 0.24636,-5.791692 0.09612,-1.351272 0.403686,-4.043958 0.403686,-4.043958 0,0 -1.896237,-2.809398 -2.351831,-4.412685 -0.484443,-1.704798 -0.496953,-3.540615 -0.340344,-5.305974 0.10884,-1.226805 0.23502,-2.540028 0.881924,-3.588069 0.448605,-0.726762 1.058661,-0.933327 1.950111,-1.661904 0.89145,-0.728577 2.050545,-2.210073 3.420672,-2.680218 1.074972,-0.368865 3.409473,0.012 3.409473,0.012 0,0 2.840208,-0.76221 4.278495,-1.063965 1.216434,-0.25521 2.534874,-0.1356 3.675081,-0.630357 1.432929,-0.621756 2.537598,-1.827087 3.73356,-2.831847 0.903969,-0.759447 2.02218,-1.378245 2.595072,-2.410578 0.421665,-0.759825 0.494988,-2.559528 0.494988,-2.559528 l -2.308098,1.440738 c 0,0 1.425804,-1.671924 1.966446,-2.620932 0.604488,-1.061079 1.187046,-2.18313 1.399578,-3.385677 0.496851,-2.811291 -0.476304,-5.704455 -0.360759,-8.556975 0.11076,-2.734656 0.0981,-5.567418 1.008213,-8.148564 0.597174,-1.693632 1.411581,-3.488589 2.838324,-4.579191 1.286679,-0.983535 4.656582,-1.386453 4.656582,-1.386453 0,0 -0.07929,-0.672108 0.14826,-0.845667 0.719559,-0.548826 2.702916,0.25497 2.702916,0.25497 0,0 1.403808,-2.058867 2.403015,-2.7574648 1.363314,-0.953163 3.000534,-1.66233 4.659288,-1.787562 3.732171,-0.28176 6.853401,-0.28953 9.745125,-0.0588 2.891724,0.23073 5.63163,0.338217 7.555806,1.260252 1.332774,0.638637 2.34966,1.8530638 3.220857,3.0468628 0.863019,1.182594 1.604958,2.525469 1.901292,3.959178 0.25617,2.208117 -0.5568,4.19259 -0.660015,5.66619 -0.1032,1.4736 -0.07548,3.157863 -0.07548,3.157863 0,0 2.097702,1.699089 2.538915,2.588532 0.377436,0.760875 0.849294,1.762782 0.443817,2.509092 -0.20178,0.371382 -1.167702,0.494166 -1.167702,0.494166 0,0 0.34707,1.464579 0.23637,2.190639 -0.04131,0.27087 -0.13476,0.559332 -0.327732,0.75387 -0.431745,0.435258 -1.680711,0.746916 -1.680711,0.746916 0,0 1.235271,-0.03417 1.533669,0.347484 0.22791,0.29151 0.19632,0.7344 0.14397,1.100709 -0.05541,0.387711 -0.19008,0.80445 -0.47256,1.075722 -0.15909,0.15276 -0.616077,0.24138 -0.616077,0.24138 0,0 0.412866,1.696083 0.18246,2.498835 -0.11109,0.387012 -0.393972,0.729666 -0.713487,0.97467 -0.665136,0.51003 -1.512855,0.806505 -2.344863,0.907986 -1.086561,0.13254 -3.25752,-0.414948 -3.25752,-0.414948 0,0 0.25575,2.606016 0.707802,3.819336 0.902094,2.421327 2.90676,4.310736 3.918897,6.688167 1.374963,3.229683 2.235663,6.680616 2.859054,10.134999 0.61656,3.416538 0.73941,6.910248 0.854457,10.380066 0.08391,2.530443 1.079391,5.365005 -0.12033,7.594545 -0.27339,0.508047 -0.662067,0.620037 -0.908754,1.141587 -1.151085,2.43366 0.05697,5.17656 0.18834,7.88001 0.06201,1.27557 0.693066,2.63361 0.24198,3.82839 -0.29976,0.79398 -1.243557,1.41765 -1.607712,1.9743 -1.130238,1.72791 0.24018,2.83287 0.11463,4.89378 -0.09972,1.636616 -0.510984,3.242876 -0.896415,4.836596 -0.19203,0.79395 -0.877965,1.3158 -0.70383,2.34729 0.22578,1.33743 1.712316,1.79895 2.213574,3.05925 0.323445,0.81324 -0.28125,1.73916 -0.24888,2.61375 0.06858,1.85235 1.066002,3.32886 0.934965,5.48166 -0.03324,0.54582 -0.288,1.61505 -0.288,1.61505 0,0 -0.981249,1.56285 -1.635879,2.2008 -0.381405,0.37167 -1.583844,0.56385 -1.583844,0.56385 -1.413558,0.39555 -1.839432,0.66162 -2.864925,-0.50961 -0.39771,-0.4542 0.562812,-0.97353 0.567648,-1.57725 0.0036,-0.44889 -0.367212,-0.85614 -0.712842,-1.14258 -0.465198,-0.38556 -1.689219,-0.65733 -1.689219,-0.65733 0,0 0.732003,1.5105 0.349995,2.11404 -0.17142,0.2709 -0.609228,0.2067 -0.924591,0.264 -0.579747,0.1053 -1.367019,-0.2946 -1.761864,0.1428 -0.77715,0.86079 -0.18819,2.34858 0.07365,3.47835 0.29925,1.29117 1.673208,3.60702 1.673208,3.60702 0,0 0.490584,3.51831 0.7782,5.27085 0.339933,2.07132 0.57816,4.1688 1.119585,6.1968 0.537837,2.01456 1.276311,3.97713 2.103978,5.89095 0.612282,1.41579 1.292823,2.81016 2.109438,4.11879 0.360492,0.57768 0.981564,0.99921 1.224018,1.63551 0.726747,1.90734 0.03525,4.11906 0.523581,6.10089 0.21759,0.88305 0.911904,1.61766 1.056345,2.51559 0.23778,1.4781 -0.352512,4.47741 -0.352512,4.47741 0,0 -0.28359,1.6635 -0.0072,2.42208 0.391779,1.07526 1.467003,1.85895 2.01318,2.86464 0.738672,1.36014 1.120392,2.71416 1.545549,4.2024 0.332736,1.16472 0.801723,2.32173 0.945693,3.50871 0.19695,1.62372 -0.554343,3.01761 -0.326067,4.63719 0.16821,1.19352 1.259073,2.09934 1.54062,3.27132 0.22263,0.92673 -0.07908,1.91988 0.08976,2.85792 0.2961,1.64481 0.560874,3.44274 1.600065,4.7517 1.31439,1.65552 3.691146,2.08215 5.394594,3.33384 0.774072,0.5688 1.65057,1.08408 2.178138,1.88682 0.365631,0.55635 0.601488,1.90446 0.601488,1.90446 0,0 1.517349,0.1266 2.236905,0.35511 0.311064,0.0987 0.693516,0.1635 0.878388,0.43257 0.21441,0.31194 0.10338,1.13082 0.10338,1.13082 0,0 2.5122662,-1.04409 3.8204702,-0.94554 0.775239,0.0585 1.489667,0.49023 2.154497,0.89322 0.65206,0.39531 1.30794,0.8499 1.7542,1.4682 0.28158,0.39015 0.5306,1.34235 0.5306,1.34235 0,0 -1.31352,1.45833 -2.78405,2.56461 -1.470525,1.10628 -4.0477652,2.5938 -6.2026172,3.76503 -1.108965,0.60276 -2.358705,1.26033 -3.582867,1.56783 -1.317228,0.33087 -2.719941,0.0906 -4.074438,-0.009 -1.305366,-0.096 -3.885747,-0.56535 -3.885747,-0.56535 0,0 -0.997959,1.21617 -1.710057,1.42356 -1.66635,0.48528 -5.591172,-0.38994 -5.591172,-0.38994 l -5.147859,0.5217 c 0,0 0.66375,-1.99251 0.22005,-3.01878 -0.21909,-0.50679 -1.089096,-0.53445 -1.278495,-1.05306 -0.304911,-0.8349 0.59898,-1.74171 0.481251,-2.62272 -0.18813,-1.40775 -1.397346,-2.49315 -1.84242,-3.84189 -0.816798,-2.47518 -0.503001,-5.26149 -1.47924,-7.67823 -0.987444,-2.44449 -3.48852,-4.12404 -4.317786,-6.62661 -0.596058,-1.7988 -0.354894,-5.67387 -0.354894,-5.67387 0,0 -1.557216,-0.67827 -1.916049,-1.37847 -0.480276,-0.93717 0.24027,-2.13393 0,-3.15924 -0.23232,-0.99132 -0.85764,-1.84923 -1.357122,-2.73648 -0.656898,-1.16682 -1.543971,-2.19915 -2.151156,-3.39264 -0.808608,-1.5894 -1.237569,-3.34773 -1.965261,-4.97574 -0.748989,-1.67568 -2.466777,-4.92291 -2.466777,-4.92291 0,0 -3.40341,5.23458 -5.133294,7.83324 -2.104245,3.16104 -4.326165,6.24396 -6.380964,9.43737 -1.073547,1.66842 -1.825602,3.56169 -3.105825,5.07732 -1.416357,1.67682 -3.35955,2.8287 -4.963539,4.32702 -1.442124,1.34712 -3.87915,2.238 -4.184991,4.18761 -0.18588,1.18491 1.568145,1.21929 1.641984,3.20169 0.08409,2.25732 -0.009,6.74631 -0.009,6.74631 0,0 2.870859,0.50835 3.828447,1.48671 0.750903,0.76719 0.914805,1.96923 1.101162,3.02643 0.12966,0.73554 0,2.24067 0,2.24067 0,0 -2.43024,0.44166 -3.652947,0.61326 -1.223151,0.1716 -2.446902,0.42837 -3.681978,0.41604 z"
       id="path100"
       sodipodi:nodetypes="ssscsssccsssssssscsscsscscssssssssscscsscssszscssssccssssscscsssssczcsscsscssscssscssssssssssssssscssssscsssscssssssscsssssssssscsscsssczssscsccsssssscssssscsssssscsscsss" />
  </g>
</svg>
